<svg xmlns="http://www.w3.org/2000/svg" xmlns:xlink="http://www.w3.org/1999/xlink" x="0px" y="0px"
	 viewBox="0 0 70.866 15.94" width="176" height="38.59">
<style type="text/css">
	.st0{fill:#6F6F6F;}
</style>
<g>
	<g>
		<path class="st0" d="M27.758,8.745l-0.016,0.154c-0.188,1.991-1.638,3.276-3.695,3.276c-1.19,0-2.211-0.392-2.952-1.133
			c-0.75-0.751-1.164-1.818-1.164-3.009c0-1.251,0.403-2.315,1.163-3.074c0.739-0.741,1.761-1.131,2.953-1.131
			c1.959,0,3.417,1.163,3.626,2.895l0.019,0.156l-2.001,0.002l-0.018-0.12c-0.103-0.688-0.816-1.227-1.626-1.227
			c-0.573,0-1.04,0.175-1.384,0.52c-0.432,0.434-0.669,1.137-0.669,1.98c0,0.805,0.233,1.484,0.661,1.912
			c0.348,0.348,0.816,0.524,1.393,0.524c0.94,0,1.564-0.592,1.702-1.61l0.009-0.116L27.758,8.745L27.758,8.745z"/>
		<path class="st0" d="M31.414,5.962c0.957,0,1.763,0.3,2.334,0.87c0.551,0.55,0.842,1.317,0.842,2.214
			c0,0.893-0.291,1.653-0.84,2.203c-0.57,0.57-1.378,0.871-2.336,0.871c-0.952,0-1.755-0.301-2.323-0.869
			c-0.551-0.55-0.84-1.311-0.84-2.205c0-0.905,0.289-1.675,0.837-2.221C29.651,6.259,30.457,5.962,31.414,5.962z M30.562,10.37
			c0.208,0.209,0.494,0.314,0.852,0.314c0.359,0,0.65-0.109,0.862-0.32c0.35-0.35,0.423-0.91,0.423-1.318
			c0-0.414-0.073-0.982-0.423-1.332c-0.209-0.209-0.499-0.316-0.862-0.316c-0.357,0-0.643,0.106-0.851,0.313
			c-0.351,0.35-0.423,0.919-0.423,1.335C30.14,9.458,30.212,10.021,30.562,10.37z"/>
		<path class="st0" d="M40.951,5.962c0.957,0,1.764,0.3,2.334,0.87c0.55,0.55,0.841,1.317,0.841,2.214
			c0,0.893-0.291,1.653-0.839,2.203c-0.57,0.57-1.377,0.871-2.336,0.871c-0.952,0-1.756-0.301-2.324-0.869
			c-0.549-0.55-0.841-1.311-0.841-2.205c0-0.905,0.291-1.675,0.838-2.221C39.189,6.259,39.994,5.962,40.951,5.962z M40.1,10.37
			c0.208,0.209,0.495,0.314,0.852,0.314c0.359,0,0.648-0.109,0.863-0.32c0.349-0.35,0.422-0.91,0.422-1.318
			c0-0.414-0.073-0.982-0.422-1.332c-0.212-0.209-0.501-0.316-0.863-0.316c-0.356,0-0.644,0.106-0.852,0.313
			c-0.348,0.35-0.422,0.919-0.422,1.335C39.678,9.458,39.749,10.021,40.1,10.37z"/>
		<g>
			<rect x="35.244" y="3.998" class="st0" width="1.889" height="7.98"/>
		</g>
		<g>
			<rect x="51.653" y="3.998" class="st0" width="1.889" height="7.98"/>
		</g>
		<path class="st0" d="M69.688,7.415h1.178V6.107l-1.178,0.001V4.435H67.8v1.673l-0.974-0.001l-0.001,1.308H67.8v3.147
			c0,0.427,0.12,0.765,0.361,1.003c0.416,0.417,1.126,0.466,1.624,0.466c0.412,0,0.726-0.02,0.962-0.057l0.119-0.018v-1.488
			l-0.168,0.031c-0.146,0.027-0.293,0.041-0.472,0.041c-0.246,0-0.385-0.03-0.448-0.094c-0.062-0.061-0.09-0.188-0.09-0.412
			C69.688,10.034,69.688,7.415,69.688,7.415z"/>
		<path class="st0" d="M46.671,13.927h-1.892l0.002-0.14v-7.68v0.001h1.615l0.193,0.444l0.01,0.026l0.021-0.02
			c0.396-0.392,0.949-0.601,1.597-0.601c0.793,0,1.443,0.25,1.933,0.738c0.562,0.561,0.868,1.413,0.868,2.401
			c0,0.91-0.312,1.746-0.86,2.292c-0.476,0.476-1.116,0.727-1.85,0.727c-0.622,0-1.191-0.212-1.604-0.596l-0.032-0.03L46.671,13.927
			L46.671,13.927z M49.128,9.053c0-0.571-0.163-1.063-0.446-1.346c-0.209-0.208-0.482-0.314-0.816-0.314
			c-0.341,0-0.617,0.104-0.82,0.308c-0.279,0.277-0.43,0.757-0.43,1.352c0,0.574,0.149,1.04,0.425,1.315
			c0.208,0.206,0.489,0.312,0.838,0.312c0.346,0,0.625-0.105,0.83-0.311C49.057,10.023,49.128,9.462,49.128,9.053z"/>
		<path class="st0" d="M60.451,11.966h-1.604l-0.215-0.504l0.003-0.048l-0.034,0.034c-0.41,0.425-1.022,0.668-1.676,0.668
			c-0.735,0-1.375-0.252-1.85-0.727c-0.548-0.546-0.861-1.382-0.861-2.292c0-0.988,0.308-1.84,0.868-2.401
			c0.49-0.489,1.141-0.738,1.935-0.738c0.646,0,1.198,0.208,1.596,0.601l0.019,0.02l0.203-0.47l1.617-0.001v5.858H60.451z
			 M57.354,10.681c0.35,0,0.63-0.106,0.837-0.312c0.276-0.275,0.426-0.741,0.426-1.315c0-0.595-0.151-1.075-0.43-1.352
			c-0.203-0.204-0.479-0.308-0.821-0.308c-0.333,0-0.607,0.106-0.815,0.314c-0.284,0.283-0.447,0.774-0.447,1.346
			c0,0.409,0.073,0.971,0.42,1.316C56.729,10.575,57.01,10.681,57.354,10.681z"/>
		<path class="st0" d="M62.921,10.185c0.132,0.58,0.854,0.625,1.072,0.625c0.089,0,0.547-0.012,0.779-0.244
			c0.088-0.088,0.133-0.197,0.133-0.326c0-0.349-0.646-0.507-1.71-0.725c-0.64-0.134-1.969-0.411-1.969-1.626
			c0-0.513,0.16-0.934,0.478-1.25c0.451-0.452,1.194-0.681,2.21-0.681c1.643,0,2.581,0.641,2.716,1.854L64.816,7.8
			c-0.04-0.235-0.188-0.535-0.946-0.535c-0.417,0-0.598,0.091-0.674,0.169c-0.054,0.054-0.08,0.119-0.08,0.207
			c0,0.345,0.589,0.463,1.268,0.6c0.145,0.029,0.294,0.059,0.444,0.093c0.639,0.139,1.968,0.429,1.968,1.701
			c0,0.547-0.175,0.999-0.521,1.345c-0.609,0.608-1.583,0.737-2.292,0.737c-0.854,0-1.542-0.172-2.041-0.514
			c-0.489-0.335-0.773-0.816-0.839-1.427L62.921,10.185z"/>
	</g>
	<g>
		<path class="st0" d="M7.39,2.461c0.699,0,1.579-0.548,2.816-0.548c1.142,0,1.897,0.445,2.283,0.498
			c0.249,0.032,0.653,0.022,1.211,0.013c-0.289-0.299-0.6-0.577-0.935-0.827H3.19C2.842,1.86,2.517,2.152,2.214,2.467L7.39,2.461z"
			/>
		<path class="st0" d="M15.791,6.397l-1.873,0.03c-0.388,0-1.203,0.297-3.271,0.297L9.987,6.72c-1.884,0-3.056-0.278-3.719-0.335
			H0.166c-0.059,0.288-0.1,0.583-0.126,0.883h6.417c0.538,0,2.237-0.331,3.531-0.331l0.642-0.016c1.292,0,2.385,0.318,2.972,0.318
			l2.314,0.014C15.889,6.963,15.848,6.677,15.791,6.397z"/>
		<path class="st0" d="M5.525,5.673c0.317,0,2.53-0.302,4.137-0.302l1.273-0.004c1.614,0,2.718,0.278,3.36,0.278l1.31,0.001
			c-0.088-0.285-0.192-0.563-0.308-0.835l-0.781,0.006c-0.36,0.079-1.863,0.384-3.571,0.332L9.651,5.168
			C8.325,5.188,6.51,4.953,5.712,4.812H0.659C0.538,5.092,0.435,5.38,0.345,5.675L5.525,5.673z"/>
		<path class="st0" d="M6.109,4.054c0.461,0,2.003-0.346,3.877-0.346l0.641,0.004c1.613,0,2.386,0.179,3.064,0.234l1.186,0.038
			c-0.158-0.275-0.332-0.54-0.52-0.794l-1.325,0.08c-0.369,0.036-1.102,0.227-2.396,0.227l-0.65,0.01
			c-1.454,0-2.343-0.213-2.993-0.283h-5.42C1.376,3.489,1.2,3.766,1.035,4.054H6.109z"/>
		<path class="st0" d="M4.348,0.875h7.259C10.519,0.316,9.288,0,7.978,0C6.67,0,5.438,0.316,4.348,0.875z"/>
	</g>
	<path class="st0" d="M12.788,7.969c-1.07,0-1.835,0.264-2.484,0.264c-0.647,0-1.567-0.264-2.083-0.264l0,0H0
		c0,4.403,3.567,7.971,7.971,7.971c4.4,0,7.969-3.568,7.969-7.971C15.94,7.969,12.788,7.969,12.788,7.969z"/>
</g>
</svg>
